<?xml version="1.0" encoding="utf-8"?>
<!-- Generator: Adobe Illustrator 16.0.0, SVG Export Plug-In . SVG Version: 6.00 Build 0)  -->
<!DOCTYPE svg PUBLIC "-//W3C//DTD SVG 1.1//EN" "http://www.w3.org/Graphics/SVG/1.1/DTD/svg11.dtd">
<svg version="1.1" id="Layer_1" xmlns="http://www.w3.org/2000/svg" xmlns:xlink="http://www.w3.org/1999/xlink" x="0px" y="0px"
	 width="200px" height="200px" viewBox="0 0 200 200" enable-background="new 0 0 200 200" xml:space="preserve">
<rect x="-143.536" y="17.979" fill="#F5AC7A" width="134.132" height="66.367"/>
<path fill="#FFFFFF" stroke="#F5AC7A" stroke-miterlimit="10" d="M30,130.59V68.918c0-2.11,1.64-3.841,3.71-3.99
	c0.1-0.01,0.19-0.01,0.29-0.01h132c0.1,0,0.189,0,0.29,0.01c2.069,0.149,3.71,1.88,3.71,3.99v61.669c0,2.211-1.79,4-4,4H34
	C31.79,134.59,30,132.799,30,130.59z"/>
<path fill="#FFFFFF" stroke="#F5AC7A" stroke-miterlimit="10" d="M30,130.594v-15.24l70-25.522l70,25.524v15.238c0,2.211-1.79,4-4,4
	H34C31.79,134.594,30,132.805,30,130.594z"/>
<path fill="#FFFFFF" stroke="#F5AC7A" stroke-miterlimit="10" d="M33.71,64.928c0.1-0.01,0.19-0.01,0.29-0.01h132
	c0.1,0,0.189,0,0.29,0.01L100,101.938L33.71,64.928z"/>
<circle fill="#F5AC7A" cx="100" cy="99.753" r="6.052"/>
</svg>
