<?xml version="1.0" encoding="utf-8"?>
<!-- Generator: Adobe Illustrator 16.0.0, SVG Export Plug-In . SVG Version: 6.00 Build 0)  -->
<!DOCTYPE svg PUBLIC "-//W3C//DTD SVG 1.1//EN" "http://www.w3.org/Graphics/SVG/1.1/DTD/svg11.dtd">
<svg version="1.1" id="Layer_1" xmlns="http://www.w3.org/2000/svg" xmlns:xlink="http://www.w3.org/1999/xlink" x="0px" y="0px"
	 width="200px" height="200px" viewBox="0 0 200 200" enable-background="new 0 0 200 200" xml:space="preserve">
<rect x="-143.536" y="17.979" fill="#F5AC7A" width="134.132" height="66.367"/>
<path fill="#F5AC7A" d="M142.729,161.25c0,4.738-3.842,8.578-8.578,8.578H65.851c-4.738,0-8.58-3.84-8.58-8.578V38.751
	c0-4.738,3.842-8.579,8.58-8.579h68.299c4.735,0,8.578,3.841,8.578,8.579V161.25L142.729,161.25z"/>
<rect x="65.952" y="40.611" fill="#FFFFFF" stroke="#F5AC7A" stroke-miterlimit="10" width="68.096" height="111.288"/>
<circle fill="#FFFFFF" stroke="#F5AC7A" stroke-miterlimit="10" cx="100.001" cy="160.804" r="5.561"/>
<path fill="#FFFFFF" d="M116.62,35.55c0,0.225-0.185,0.406-0.405,0.406H83.786c-0.225,0-0.406-0.181-0.406-0.406l0,0
	c0-0.223,0.181-0.405,0.406-0.405h32.429C116.438,35.145,116.62,35.327,116.62,35.55L116.62,35.55z"/>
<g opacity="0.8">
	<path fill="#3C3736" d="M106.729,104.281v11.982c-0.002,0.68-0.729,1.23-1.582,1.229h-5.64h-5.684
		c-0.851-0.001-1.499-0.604-1.494-1.284v-11.979c0.012-3.162,3.221-5.716,7.178-5.725h0.044
		C103.529,98.518,106.743,101.107,106.729,104.281z"/>
	<path fill="#3C3736" d="M113.091,101.951c-1.75,0-3.366-0.346-4.675-0.932c0.875,1.025,2.639,1.729,4.675,1.729
		c2.038,0,3.802-0.702,4.679-1.729C116.458,101.605,114.842,101.951,113.091,101.951z"/>
	<path fill="#3C3736" d="M85.417,101.951c-1.751,0-3.367-0.346-4.676-0.932c0.875,1.025,2.639,1.729,4.676,1.729
		s3.8-0.702,4.675-1.729C88.783,101.605,87.167,101.951,85.417,101.951z"/>
</g>
<path fill="none" stroke="#F5AC7A" stroke-miterlimit="10" d="M36.244,115.27c-2.14-4.41-3.38-9.649-3.38-15.27
	s1.24-10.86,3.38-15.27"/>
<path fill="none" stroke="#F5AC7A" stroke-miterlimit="10" d="M46.454,87.09c-2.83,3.07-4.63,7.71-4.63,12.91s1.8,9.84,4.63,12.91"
	/>
<path fill="none" stroke="#F5AC7A" stroke-miterlimit="10" d="M162.403,84.73c2.141,4.41,3.381,9.649,3.381,15.27
	s-1.24,10.859-3.381,15.27"/>
<path fill="none" stroke="#F5AC7A" stroke-miterlimit="10" d="M152.194,112.91c2.83-3.07,4.629-7.71,4.629-12.91
	s-1.799-9.84-4.629-12.91"/>
</svg>
