<?xml version="1.0" encoding="utf-8"?>
<!-- Generator: Adobe Illustrator 16.0.0, SVG Export Plug-In . SVG Version: 6.00 Build 0)  -->
<!DOCTYPE svg PUBLIC "-//W3C//DTD SVG 1.1//EN" "http://www.w3.org/Graphics/SVG/1.1/DTD/svg11.dtd">
<svg version="1.1" id="Layer_1" xmlns="http://www.w3.org/2000/svg" xmlns:xlink="http://www.w3.org/1999/xlink" x="0px" y="0px"
	 width="200px" height="200px" viewBox="0 0 200 200" enable-background="new 0 0 200 200" xml:space="preserve">
<rect x="-177.667" y="86.667" fill="none" stroke="#3C3736" stroke-miterlimit="10" width="140" height="140"/>
<rect x="-143.536" y="17.979" fill="#F5AC7A" width="134.132" height="66.367"/>
<path fill="#F5AC7A" d="M142.729,161.25c0,4.738-3.842,8.578-8.579,8.578h-68.3c-4.738,0-8.58-3.84-8.58-8.578V38.751
	c0-4.738,3.842-8.579,8.58-8.579h68.3c4.737,0,8.579,3.841,8.579,8.579V161.25z"/>
<rect x="65.952" y="40.611" fill="#FFFFFF" stroke="#F5AC7A" stroke-miterlimit="10" width="68.096" height="111.287"/>
<circle fill="#FFFFFF" stroke="#F5AC7A" stroke-miterlimit="10" cx="100.001" cy="160.804" r="5.561"/>
<path fill="#FFFFFF" d="M116.62,35.55c0,0.225-0.184,0.406-0.405,0.406H83.786c-0.225,0-0.406-0.181-0.406-0.406l0,0
	c0-0.223,0.181-0.405,0.406-0.405h32.429C116.437,35.145,116.62,35.327,116.62,35.55L116.62,35.55z"/>
<polygon opacity="0.4" fill="#F5AC7A" points="134.048,94.635 134.048,113.226 95.375,151.898 76.785,151.898 "/>
<polygon opacity="0.4" fill="#F5AC7A" points="134.048,40.611 134.048,75.974 65.952,144.07 65.952,92.874 118.215,40.611 "/>
</svg>
