<?xml version="1.0" encoding="utf-8"?>
<!-- Generator: Adobe Illustrator 16.0.0, SVG Export Plug-In . SVG Version: 6.00 Build 0)  -->
<!DOCTYPE svg PUBLIC "-//W3C//DTD SVG 1.1//EN" "http://www.w3.org/Graphics/SVG/1.1/DTD/svg11.dtd">
<svg version="1.1" id="Layer_1" xmlns="http://www.w3.org/2000/svg" xmlns:xlink="http://www.w3.org/1999/xlink" x="0px" y="0px"
	 width="200px" height="200px" viewBox="0 0 200 200" enable-background="new 0 0 200 200" xml:space="preserve">
<rect x="-158.833" y="100" fill="none" stroke="#3C3736" stroke-miterlimit="10" width="140" height="140"/>
<rect x="-143.536" y="17.979" fill="#F5AC7A" width="134.132" height="66.367"/>
<g>
	<path fill="#FFFFFF" stroke="#F5AC7A" stroke-miterlimit="10" d="M30,130.583V68.912c0-2.11,1.64-3.841,3.71-3.99
		c0.1-0.01,0.19-0.01,0.29-0.01h132c0.1,0,0.189,0,0.29,0.01c2.069,0.149,3.71,1.88,3.71,3.99v61.669c0,2.211-1.79,4-4,4H34
		C31.79,134.583,30,132.792,30,130.583z"/>
	<path fill="#F5AC7A" d="M166.29,64.927l-17.46,9.74l-41.2,23H92.37l-0.04-0.021L61.5,80.438l-10.33-5.771l-17.46-9.74
		c0.1-0.01,0.19-0.01,0.29-0.01h132C166.1,64.917,166.189,64.917,166.29,64.927z"/>
	<polygon fill="#FFFFFF" stroke="#F5AC7A" stroke-miterlimit="10" points="148.83,18.487 148.83,74.667 107.63,97.667 100,100.928 
		92.37,97.667 92.33,97.646 61.5,80.438 51.17,74.667 51.17,18.487 	"/>
	<path fill="#FFFFFF" stroke="#F5AC7A" stroke-miterlimit="10" d="M30,130.587v-15.239l70-25.522l70,25.524v15.237
		c0,2.211-1.79,4-4,4H34C31.79,134.587,30,132.798,30,130.587z"/>
	<g opacity="0.8">
		<path fill="#3C3736" d="M107.729,57.754v11.983c-0.002,0.68-0.729,1.231-1.582,1.229h-5.64h-5.684
			c-0.851-0.001-1.499-0.603-1.494-1.284v-11.98c0.012-3.162,3.221-5.716,7.178-5.724h0.044
			C104.529,51.991,107.743,54.58,107.729,57.754z"/>
		<path fill="#3C3736" d="M114.091,55.424c-1.75,0-3.366-0.346-4.675-0.932c0.875,1.026,2.639,1.729,4.675,1.729
			c2.038,0,3.802-0.702,4.679-1.729C117.458,55.078,115.842,55.424,114.091,55.424z"/>
		<path fill="#3C3736" d="M86.417,55.424c-1.751,0-3.367-0.346-4.676-0.932c0.875,1.026,2.639,1.729,4.676,1.729
			s3.8-0.702,4.675-1.729C89.783,55.078,88.167,55.424,86.417,55.424z"/>
	</g>
</g>
</svg>
