<?xml version="1.0" encoding="utf-8"?>
<!-- Generator: Adobe Illustrator 16.0.0, SVG Export Plug-In . SVG Version: 6.00 Build 0)  -->
<!DOCTYPE svg PUBLIC "-//W3C//DTD SVG 1.1//EN" "http://www.w3.org/Graphics/SVG/1.1/DTD/svg11.dtd">
<svg version="1.1" id="Layer_1" xmlns="http://www.w3.org/2000/svg" xmlns:xlink="http://www.w3.org/1999/xlink" x="0px" y="0px"
	 width="1920px" height="950px" viewBox="0 0 1920 950" enable-background="new 0 0 1920 950" xml:space="preserve">
<rect fill="#F6B57C" width="1920" height="950"/>
<g>
	<path fill="#3C3736" d="M764.019,663.624H734.8l-31.792-51.133l-10.874,7.803v43.33h-25.732V542.267h25.732v55.532l10.127-14.277
		l32.871-41.255h28.555l-42.334,53.706L764.019,663.624z"/>
	<path fill="#3C3736" d="M861.636,617.057c0,15.107-3.984,26.923-11.953,35.444c-7.969,8.522-19.064,12.783-33.286,12.783
		c-8.91,0-16.768-1.951-23.574-5.852c-6.807-3.902-12.036-9.505-15.688-16.81s-5.479-15.826-5.479-25.566
		c0-15.162,3.956-26.949,11.87-35.361c7.913-8.411,19.036-12.617,33.369-12.617c8.909,0,16.768,1.938,23.574,5.811
		c6.807,3.874,12.036,9.436,15.688,16.685C859.81,598.823,861.636,607.317,861.636,617.057z M797.471,617.057
		c0,9.187,1.507,16.132,4.524,20.835c3.016,4.704,7.927,7.056,14.734,7.056c6.751,0,11.607-2.337,14.568-7.015
		c2.96-4.675,4.441-11.634,4.441-20.876c0-9.186-1.494-16.075-4.482-20.669c-2.988-4.593-7.886-6.89-14.692-6.89
		c-6.752,0-11.621,2.282-14.609,6.849C798.965,600.911,797.471,607.815,797.471,617.057z"/>
	<path fill="#3C3736" d="M941.489,663.624l-4.897-12.617h-0.664c-4.262,5.368-8.647,9.09-13.157,11.164
		c-4.511,2.076-10.39,3.113-17.639,3.113c-8.91,0-15.924-2.545-21.042-7.637c-5.119-5.091-7.678-12.34-7.678-21.748
		c0-9.85,3.445-17.112,10.334-21.789c6.89-4.676,17.279-7.264,31.169-7.762l16.104-0.498v-4.067c0-9.407-4.814-14.111-14.443-14.111
		c-7.416,0-16.132,2.241-26.147,6.724l-8.384-17.1c10.68-5.589,22.522-8.384,35.527-8.384c12.451,0,21.997,2.712,28.638,8.135
		c6.641,5.424,9.961,13.669,9.961,24.736v61.841H941.489z M934.019,620.626l-9.795,0.332c-7.36,0.222-12.839,1.55-16.436,3.984
		c-3.598,2.436-5.396,6.143-5.396,11.123c0,7.139,4.095,10.708,12.285,10.708c5.865,0,10.555-1.688,14.07-5.063
		c3.514-3.375,5.271-7.857,5.271-13.447V620.626z"/>
	<path fill="#3C3736" d="M987.227,663.624V542.267h25.732v100.107h49.224v21.25H987.227z"/>
	<path fill="#3C3736" d="M1123.276,665.284c-14.941,0-26.618-4.122-35.029-12.368c-8.412-8.245-12.617-19.922-12.617-35.029
		c0-15.55,3.887-27.571,11.662-36.067c7.774-8.493,18.524-12.741,32.249-12.741c13.115,0,23.325,3.735,30.63,11.206
		s10.957,17.792,10.957,30.962v12.285h-59.849c0.276,7.194,2.407,12.812,6.392,16.851c3.984,4.04,9.573,6.06,16.768,6.06
		c5.589,0,10.874-0.581,15.854-1.743s10.182-3.016,15.605-5.562v19.59c-4.428,2.214-9.159,3.86-14.194,4.938
		C1136.668,664.745,1130.525,665.284,1123.276,665.284z M1119.707,587.091c-5.368,0-9.574,1.701-12.617,5.105
		c-3.044,3.402-4.787,8.231-5.229,14.484h35.527c-0.111-6.253-1.743-11.082-4.897-14.484
		C1129.336,588.792,1125.074,587.091,1119.707,587.091z"/>
	<path fill="#3C3736" d="M1223.716,665.284c-14.941,0-26.618-4.122-35.029-12.368c-8.412-8.245-12.617-19.922-12.617-35.029
		c0-15.55,3.887-27.571,11.662-36.067c7.774-8.493,18.524-12.741,32.249-12.741c13.115,0,23.325,3.735,30.63,11.206
		s10.957,17.792,10.957,30.962v12.285h-59.849c0.276,7.194,2.407,12.812,6.392,16.851c3.984,4.04,9.573,6.06,16.768,6.06
		c5.589,0,10.874-0.581,15.854-1.743s10.182-3.016,15.605-5.562v19.59c-4.428,2.214-9.159,3.86-14.194,4.938
		C1237.107,664.745,1230.965,665.284,1223.716,665.284z M1220.146,587.091c-5.368,0-9.574,1.701-12.617,5.105
		c-3.044,3.402-4.787,8.231-5.229,14.484h35.527c-0.111-6.253-1.743-11.082-4.897-14.484
		C1229.775,588.792,1225.514,587.091,1220.146,587.091z"/>
</g>
<g>
	<path fill="#3C3736" d="M1025.764,383.381v117.09c-0.023,6.659-7.144,12.057-15.464,12.035h-55.117h-55.538
		c-8.313-0.019-14.646-5.89-14.604-12.558V382.865c0.111-30.91,31.47-55.867,70.141-55.929h0.435
		C994.49,327.057,1025.9,352.367,1025.764,383.381z"/>
	<path fill="#3C3736" d="M1087.928,360.604c-17.104,0-32.9-3.378-45.688-9.084c8.549,10.026,25.788,16.884,45.688,16.884
		c19.91,0,37.146-6.855,45.705-16.884C1120.837,357.226,1105.041,360.604,1087.928,360.604z"/>
	<path fill="#3C3736" d="M817.483,360.604c-17.115,0-32.902-3.378-45.697-9.084c8.557,10.026,25.787,16.884,45.697,16.884
		c19.907,0,37.14-6.855,45.694-16.884C850.384,357.226,834.588,360.604,817.483,360.604z"/>
	<path fill="#3C3736" d="M734.058,335.172c-6.769-76.737,19.366-147.732,76.349-186.049l1.066-0.712
		c-32.524-19.981-72.26-21.78-103.123-1.068c-44.563,29.972-53.951,95.401-20.809,146.192
		C699.748,312.252,716.063,326.355,734.058,335.172z"/>
	<path fill="#3C3736" d="M1185.24,336.115c6.975-76.213-19.206-146.602-76.517-184.463l-1.065-0.713
		c32.795-19.928,72.816-21.852,103.869-1.389c44.813,29.615,54.139,94.547,20.656,145.07
		C1219.854,313.249,1203.38,327.318,1185.24,336.115z"/>
</g>
<g enable-background="new    ">
	<path fill="#3C3736" d="M717.656,1042.813h-13.75l-14.961-24.063l-5.117,3.672v20.394H671.72v-57.109h12.108v26.133l4.767-6.719
		l15.47-19.414H717.5l-19.923,25.272L717.656,1042.813z"/>
	<path fill="#3C3736" d="M717.656,999.142h13.047l8.242,24.569c0.703,2.136,1.186,4.662,1.443,7.578h0.233
		c0.286-2.682,0.847-5.208,1.681-7.578l8.086-24.569h12.772l-18.479,49.26c-1.691,4.557-4.106,7.969-7.245,10.231
		c-3.14,2.269-6.805,3.398-10.995,3.398c-2.06,0-4.076-0.222-6.057-0.664v-9.453c1.434,0.338,2.994,0.508,4.688,0.508
		c2.107,0,3.951-0.645,5.525-1.934c1.575-1.289,2.808-3.236,3.69-5.84l0.703-2.148L717.656,999.142z"/>
	<path fill="#3C3736" d="M809.104,1020.899c0,7.106-1.875,12.67-5.625,16.68c-3.75,4.011-8.974,6.016-15.664,6.016
		c-4.193,0-7.893-0.918-11.096-2.754s-5.664-4.473-7.383-7.91c-1.72-3.437-2.578-7.444-2.578-12.028
		c0-7.138,1.86-12.685,5.586-16.644c3.726-3.958,8.958-5.938,15.703-5.938c4.191,0,7.893,0.912,11.094,2.731
		c3.203,1.823,5.664,4.44,7.385,7.854C808.242,1012.319,809.104,1016.316,809.104,1020.899z M778.906,1020.899
		c0,4.32,0.709,7.592,2.129,9.805c1.419,2.214,3.729,3.32,6.935,3.32c3.179,0,5.462-1.103,6.854-3.304
		c1.394-2.198,2.09-5.475,2.09-9.821c0-4.322-0.702-7.564-2.108-9.729c-1.404-2.161-3.711-3.242-6.913-3.242
		c-3.179,0-5.47,1.074-6.875,3.226C779.611,1013.302,778.906,1016.551,778.906,1020.899z"/>
	<path fill="#3C3736" d="M859.258,1042.813h-11.914v-25.511c0-3.147-0.562-5.514-1.681-7.09c-1.119-1.575-2.903-2.361-5.354-2.361
		c-3.334,0-5.74,1.111-7.227,3.341c-1.484,2.227-2.229,5.918-2.229,11.071v20.55h-11.913V999.14h9.103l1.602,5.588h0.664
		c1.328-2.108,3.157-3.703,5.488-4.784c2.33-1.08,4.979-1.621,7.948-1.621c5.078,0,8.933,1.374,11.563,4.121
		c2.631,2.748,3.945,6.713,3.945,11.895L859.258,1042.813L859.258,1042.813z"/>
	<path fill="#3C3736" d="M909.531,999.142v6.057l-6.836,1.758c1.25,1.953,1.875,4.141,1.875,6.563c0,4.688-1.636,8.341-4.901,10.955
		c-3.27,2.617-7.808,3.929-13.613,3.929l-2.146-0.117l-1.758-0.195c-1.227,0.938-1.837,1.979-1.837,3.125
		c0,1.72,2.188,2.578,6.563,2.578h7.422c4.791,0,8.442,1.029,10.957,3.086c2.514,2.061,3.771,5.078,3.771,9.063
		c0,5.104-2.129,9.063-6.389,11.875c-4.258,2.812-10.369,4.219-18.34,4.219c-6.095,0-10.749-1.063-13.965-3.186
		c-3.218-2.123-4.824-5.099-4.824-8.927c0-2.631,0.819-4.831,2.461-6.602c1.643-1.771,4.051-3.033,7.229-3.789
		c-1.227-0.521-2.292-1.373-3.203-2.562c-0.911-1.185-1.366-2.438-1.366-3.77c0-1.666,0.479-3.053,1.444-4.16
		c0.963-1.105,2.354-2.192,4.181-3.262c-2.292-0.989-4.106-2.578-5.449-4.769c-1.342-2.188-2.012-4.766-2.012-7.731
		c0-4.769,1.549-8.45,4.647-11.057c3.099-2.604,7.523-3.904,13.279-3.904c1.226,0,2.678,0.108,4.354,0.332
		c1.681,0.222,2.755,0.385,3.224,0.485h15.232V999.142z M875.821,1048.985c0,1.641,0.787,2.93,2.361,3.866
		c1.575,0.938,3.782,1.404,6.621,1.404c4.271,0,7.617-0.586,10.039-1.758s3.633-2.771,3.633-4.806c0-1.643-0.717-2.772-2.146-3.397
		c-1.435-0.625-3.646-0.938-6.642-0.938h-6.173c-2.188,0-4.019,0.515-5.486,1.543
		C876.556,1045.933,875.821,1047.292,875.821,1048.985z M880.156,1013.438c0,2.368,0.54,4.243,1.621,5.625
		c1.08,1.381,2.729,2.067,4.939,2.067c2.238,0,3.88-0.688,4.922-2.067c1.041-1.382,1.563-3.257,1.563-5.625
		c0-5.263-2.162-7.894-6.483-7.894C882.344,1005.548,880.156,1008.179,880.156,1013.438z"/>
	<path fill="#3C3736" d="M917.656,1042.813v-57.109h12.107v47.109h23.164v10H917.656z"/>
	<path fill="#3C3736" d="M981.68,1043.595c-7.029,0-12.523-1.938-16.482-5.817s-5.938-9.375-5.938-16.484
		c0-7.316,1.83-12.975,5.487-16.973c3.658-3.997,8.718-5.996,15.177-5.996c6.172,0,10.978,1.758,14.414,5.271
		c3.438,3.518,5.155,8.373,5.155,14.57v5.781h-28.164c0.132,3.386,1.134,6.026,3.009,7.93s4.506,2.854,7.892,2.854
		c2.631,0,5.116-0.272,7.461-0.819s4.791-1.419,7.345-2.617v9.219c-2.084,1.042-4.313,1.816-6.682,2.324
		C987.984,1043.344,985.092,1043.595,981.68,1043.595z M980,1006.798c-2.525,0-4.507,0.803-5.938,2.402
		c-1.433,1.601-2.253,3.874-2.462,6.813h16.721c-0.055-2.939-0.82-5.215-2.307-6.813
		C984.529,1007.601,982.525,1006.798,980,1006.798z"/>
	<path fill="#3C3736" d="M1028.945,1043.595c-7.031,0-12.524-1.938-16.483-5.817s-5.938-9.375-5.938-16.484
		c0-7.316,1.829-12.975,5.487-16.973c3.657-3.997,8.717-5.996,15.176-5.996c6.173,0,10.979,1.758,14.414,5.271
		c3.438,3.518,5.155,8.373,5.155,14.57v5.781h-28.163c0.131,3.386,1.133,6.026,3.008,7.93s4.506,2.854,7.893,2.854
		c2.631,0,5.115-0.272,7.461-0.819c2.344-0.547,4.791-1.419,7.344-2.617v9.219c-2.084,1.042-4.312,1.816-6.68,2.324
		C1035.248,1043.342,1032.357,1043.595,1028.945,1043.595z M1027.266,1006.798c-2.523,0-4.506,0.803-5.938,2.402
		c-1.434,1.601-2.252,3.874-2.461,6.813h16.72c-0.054-2.939-0.819-5.215-2.306-6.813
		C1031.795,1007.601,1029.791,1006.798,1027.266,1006.798z"/>
	<path fill="#3C3736" d="M1117.616,1003.517c0,6.146-1.92,10.849-5.763,14.104c-3.843,3.256-9.304,4.883-16.388,4.883h-5.193v20.313
		h-12.108v-57.109h18.241c6.929,0,12.191,1.491,15.802,4.473C1115.813,993.159,1117.616,997.604,1117.616,1003.517z
		 M1090.271,1012.579h3.984c3.725,0,6.51-0.735,8.358-2.207c1.851-1.471,2.771-3.613,2.771-6.426c0-2.838-0.773-4.938-2.323-6.289
		c-1.55-1.354-3.979-2.031-7.284-2.031h-5.51L1090.271,1012.579L1090.271,1012.579z"/>
	<path fill="#3C3736" d="M1155.195,1042.813l-2.307-5.938h-0.313c-2.006,2.526-4.067,4.277-6.19,5.254
		c-2.123,0.979-4.89,1.465-8.302,1.465c-4.192,0-7.493-1.194-9.901-3.594c-2.407-2.396-3.612-5.807-3.612-10.232
		c0-4.637,1.621-8.055,4.862-10.255c3.242-2.199,8.132-3.419,14.668-3.65l7.578-0.234v-1.915c0-4.427-2.267-6.641-6.797-6.641
		c-3.49,0-7.593,1.055-12.306,3.164l-3.944-8.048c5.024-2.631,10.601-3.944,16.719-3.944c5.858,0,10.354,1.275,13.479,3.828
		s4.688,6.433,4.688,11.641v29.104L1155.195,1042.813L1155.195,1042.813z M1151.68,1022.579l-4.607,0.156
		c-3.463,0.104-6.041,0.729-7.733,1.875c-1.692,1.146-2.539,2.891-2.539,5.231c0,3.359,1.929,5.039,5.781,5.039
		c2.76,0,4.967-0.794,6.62-2.383c1.654-1.588,2.479-3.697,2.479-6.328V1022.579z"/>
	<path fill="#3C3736" d="M1200.156,998.321c1.613,0,2.955,0.117,4.021,0.352l-0.896,11.172c-0.963-0.26-2.137-0.391-3.518-0.391
		c-3.803,0-6.764,0.977-8.887,2.93s-3.185,4.688-3.185,8.203v22.229h-11.914v-43.674h9.021l1.759,7.346h0.587
		c1.354-2.447,3.185-4.42,5.487-5.918C1194.941,999.07,1197.447,998.321,1200.156,998.321z"/>
	<path fill="#3C3736" d="M1223.555,1019.063l5.195-6.644l12.229-13.281h13.438l-17.345,18.945l18.396,24.729h-13.75l-12.578-17.695
		l-5.115,4.102v13.597h-11.914v-60.783h11.914v27.106l-0.625,9.925L1223.555,1019.063L1223.555,1019.063z"/>
</g>
</svg>
